<svg viewBox="0 0 90 90" xmlns="http://www.w3.org/2000/svg"><rect fill="#a35a2d" height="7.35" rx="3.43" width="83.4" x="3.3" y="49.81"/><rect fill="#a35a2d" height="7.35" rx="3.43" width="83.4" x="3.3" y="33.31"/><path d="m84.13 41.69a3.31 3.31 0 0 1 1 .17 4.08 4.08 0 0 0 -.58-.75 4 4 0 0 0 -2.85-1.19h-73.39a4 4 0 0 0 -3.31 1.79s0 .1-.07.15a3.31 3.31 0 0 1 1-.16z" fill="#f04b3e"/><path d="m5.87 48.78a3.31 3.31 0 0 1 -1-.17 4 4 0 0 0 3.43 1.94h73.39a4 4 0 0 0 3.43-1.94 3.31 3.31 0 0 1 -1 .17z" fill="#82c60a"/><path d="m85.12 41.86a3.31 3.31 0 0 0 -1-.17h-78.25a3.31 3.31 0 0 0 -1 .16 3.37 3.37 0 0 0 -2.37 3.21v.34a3.37 3.37 0 0 0 2.38 3.2 3.31 3.31 0 0 0 1 .17h78.25a3.31 3.31 0 0 0 1-.17 3.37 3.37 0 0 0 2.38-3.2v-.34a3.37 3.37 0 0 0 -2.39-3.2z" fill="#6a3311"/><path d="m9.63 29.38v6.55a1.83 1.83 0 0 0 2.37 1.77 13.63 13.63 0 0 0 3.89-2.28c1.61-1.22 3.11-2.42 5.58-2.42s4 1.18 5.6 2.41 3.54 2.65 6.24 2.65 4.59-1.41 6.24-2.65 3.19-2.41 5.61-2.41 4 1.18 5.6 2.41 3.54 2.66 6.24 2.66 4.59-1.41 6.24-2.65 3.19-2.42 5.62-2.42 4 1.18 5.6 2.41a13.63 13.63 0 0 0 3.89 2.28 1.83 1.83 0 0 0 2.35-1.77v-6.54z" fill="#febc10"/><path d="m9.63 60.12v-6.54a1.83 1.83 0 0 1 2.37-1.77 13.63 13.63 0 0 1 3.89 2.28c1.63 1.23 3.18 2.38 5.6 2.41s4-1.18 5.6-2.41 3.54-2.65 6.24-2.65 4.59 1.41 6.24 2.65 3.18 2.38 5.6 2.41 4-1.18 5.6-2.41 3.53-2.66 6.23-2.66 4.59 1.41 6.24 2.65 3.18 2.38 5.6 2.41 4-1.18 5.6-2.41a13.63 13.63 0 0 1 3.89-2.28 1.83 1.83 0 0 1 2.35 1.77v6.55z" fill="#febc10"/><path d="m62.55 12.69c13.21 0 19.15 9.62 21.36 14.65a4.39 4.39 0 0 1 -3.21 6.16 4.11 4.11 0 0 1 -.56 0h-70.46a4.11 4.11 0 0 1 -.56 0 4.39 4.39 0 0 1 -3.21-6.16c2.21-5 8.15-14.65 21.36-14.65z" fill="#de912a"/><path d="m79.48 56.46h-70.48a3.22 3.22 0 0 0 -3.21 3.21s2.9 17.64 20.79 17.64h35.31c17.89 0 20.79-17.64 20.79-17.64a3.22 3.22 0 0 0 -3.2-3.21z" fill="#de912a"/><g fill="#f2b933"><circle cx="22.54" cy="20.35" r="1.45"/><circle cx="28.96" cy="20.35" r="1.45"/><circle cx="35.38" cy="20.35" r="1.45"/><circle cx="41.79" cy="20.35" r="1.45"/><circle cx="48.21" cy="20.35" r="1.45"/><circle cx="54.62" cy="20.35" r="1.45"/><circle cx="61.04" cy="20.35" r="1.45"/><circle cx="67.46" cy="20.35" r="1.45"/><circle cx="25.75" cy="16.49" r="1.45"/><circle cx="32.17" cy="16.49" r="1.45"/><circle cx="38.58" cy="16.49" r="1.45"/><circle cx="45" cy="16.49" r="1.45"/><circle cx="51.42" cy="16.49" r="1.45"/><circle cx="57.83" cy="16.49" r="1.45"/><circle cx="64.25" cy="16.49" r="1.45"/></g></svg>