<svg viewBox="0 0 120 120" xmlns="http://www.w3.org/2000/svg"><rect fill="#ef2e2e" height="7.35" rx="2.58" width="38.71" x="35.9" y="96.96"/><path d="m72 97h-8.22v7.35h8.22a2.59 2.59 0 0 0 2.58-2.58v-2.23a2.59 2.59 0 0 0 -2.58-2.54z" fill="#c92323"/><path d="m103.53 9.4c.32.73.48 1.1.77 1.84a1.11 1.11 0 0 1 -.7 1.38l-74.26 30.38c-.6.24-1.19.17-1.32-.16-.19-.48-.29-.71-.5-1.18s.22-.8.81-1.05l73.72-31.67a1.1 1.1 0 0 1 1.48.46z" fill="#161313"/><path d="m107.3 20.26c.25.76.37 1.14.59 1.9a1.11 1.11 0 0 1 -.83 1.31l-76.84 23.06c-.61.18-1.2 0-1.3-.29-.14-.49-.22-.74-.37-1.22s.29-.78.9-1l76.42-24.4a1.12 1.12 0 0 1 1.43.64z" fill="#161313"/><g fill="#f7c537"><path d="m38.21 52.15v-10.9l-3 1v11.15a18.42 18.42 0 0 1 3-1.25z"/><path d="m43.47 51.35c.52 0 1 0 1.55.07v-12.35l-3 1v11.35c.48-.04.98-.07 1.45-.07z"/><path d="m52.29 53.73v-23.44l-3 1.29v20.77a17.74 17.74 0 0 1 3 1.38z"/><path d="m58.47 48.92v-21.28l-3 1.29v20.71a16.82 16.82 0 0 1 3-.72z"/><path d="m64.63 49.05v-16.27l-3 1v14.95a18.61 18.61 0 0 1 3 .32z"/><path d="m61.11 48.7a17.64 17.64 0 0 0 -17.64 17.64h35.28a17.64 17.64 0 0 0 -17.64-17.64z"/></g><path d="m79.75 67.34h-37.28v-1a18.64 18.64 0 0 1 37.28 0zm-35.25-2h33.22a16.64 16.64 0 0 0 -33.22 0z" fill="#1e0a09"/><path d="m61.11 53.48a12.86 12.86 0 0 0 -12.86 12.86h25.75a12.86 12.86 0 0 0 -12.89-12.86z" fill="#f7c537"/><path d="m75 67.34h-27.75v-1a13.86 13.86 0 1 1 27.72 0zm-25.68-2h23.61a11.86 11.86 0 0 0 -23.64 0z" fill="#1e0a09"/><path d="m66.53 66.38a8 8 0 0 0 -8 8h16.03a8 8 0 0 0 -8.03-8z" fill="#fff"/><path d="m65.62 67.44a6.86 6.86 0 0 1 1.81 0h4.84a9 9 0 0 0 -11.49 0z" fill="#1e0a09"/><path d="m24.89 69.91a3.16 3.16 0 0 1 2-2.22 16.63 16.63 0 0 1 33.11-.25h2a18.63 18.63 0 0 0 -37.17 1.56v1h.05s.01-.06.01-.09z" fill="#1e0a09"/><path d="m51.42 67.44a16.63 16.63 0 0 1 30.21 0h.27a3.49 3.49 0 0 1 2.18.75 18.62 18.62 0 0 0 -34.83-.75z" fill="#1e0a09"/><path d="m81.9 67.44a3.74 3.74 0 0 1 .89.12 17.65 17.65 0 0 0 -32.47-.12z" fill="#f7c537"/><path d="m77.32 67.44a12.85 12.85 0 0 0 -21.59 0z" fill="#f7c537"/><path d="m51.42 67.44a16.63 16.63 0 0 1 30.21 0h.27a3.49 3.49 0 0 1 2.18.75 18.62 18.62 0 0 0 -34.83-.75z" fill="#1e0a09"/><path d="m57 67.44a11.84 11.84 0 0 1 19.16 0h2.37a13.83 13.83 0 0 0 -23.91 0z" fill="#1e0a09"/><path d="m28.18 67.44h32.82a17.62 17.62 0 0 0 -35.17.87 3.48 3.48 0 0 1 2.35-.87z" fill="#f7c537"/><path d="m56.23 67.44a12.85 12.85 0 0 0 -25.52 0z" fill="#f7c537"/><path d="m51.35 67.44a8 8 0 0 0 -15.77 0z" fill="#f7c537"/><path d="m31.72 67.44a11.84 11.84 0 0 1 23.49 0h2a13.86 13.86 0 0 0 -27.54 0z" fill="#1e0a09"/><path d="m36.61 67.44a7 7 0 0 1 13.72 0h2a9 9 0 0 0 -17.79 0z" fill="#1e0a09"/><path d="m24.89 69.91a3.16 3.16 0 0 1 2-2.22 16.63 16.63 0 0 1 33.11-.25h2a18.63 18.63 0 0 0 -37.17 1.56v1h.05s.01-.06.01-.09z" fill="#1e0a09"/><path d="m36.7 97h36.68a3.44 3.44 0 0 0 2.18-.74 26.87 26.87 0 0 0 10.22-20.85 25.6 25.6 0 0 0 -.6-5.5 3.29 3.29 0 0 0 -3.28-2.47h-53.72a3.3 3.3 0 0 0 -3.29 2.47 25.6 25.6 0 0 0 -.6 5.5 26.87 26.87 0 0 0 10.22 20.81 3.47 3.47 0 0 0 2.19.78z" fill="#ef2e2e"/><path d="m85.18 69.91a3.29 3.29 0 0 0 -3.28-2.47h-12.57a3.29 3.29 0 0 1 3.28 2.47 25 25 0 0 1 .6 5.5 26.84 26.84 0 0 1 -10.21 20.81 3.42 3.42 0 0 1 -2.18.74h12.56a3.44 3.44 0 0 0 2.18-.74 26.87 26.87 0 0 0 10.22-20.81 25.6 25.6 0 0 0 -.6-5.5z" fill="#c92323"/><path d="m86.65 69.59a4.83 4.83 0 0 0 -4.75-3.65h-53.72a4.81 4.81 0 0 0 -4.75 3.65 27.17 27.17 0 0 0 -.64 5.82 28.42 28.42 0 0 0 10.78 22 4.35 4.35 0 0 0 1.12.66 4.17 4.17 0 0 0 -.29 1.5v2.19a4.08 4.08 0 0 0 4.08 4.08h33.52a4.08 4.08 0 0 0 4.08-4.08v-2.22a4 4 0 0 0 -.36-1.66 4.34 4.34 0 0 0 .76-.5 28.41 28.41 0 0 0 10.77-22 27.09 27.09 0 0 0 -.6-5.79zm-13.54 32.14a1.08 1.08 0 0 1 -1.11 1.08h-33.52a1.08 1.08 0 0 1 -1.08-1.08v-2.19a1.08 1.08 0 0 1 1.08-1.08h33.52a1.08 1.08 0 0 1 1.08 1.08zm1.5-6.67a2 2 0 0 1 -1.23.4h-36.68a2 2 0 0 1 -1.24-.4 25.47 25.47 0 0 1 -9.67-19.65 23.76 23.76 0 0 1 .57-5.18 1.81 1.81 0 0 1 1.82-1.29h53.72a1.81 1.81 0 0 1 1.82 1.29 24.38 24.38 0 0 1 .56 5.18 25.44 25.44 0 0 1 -9.67 19.65z" fill="#1e0a09"/><ellipse cx="31.24" cy="75.58" fill="#f7dada" rx="2.66" ry="4.41" transform="matrix(.99202696 -.12602583 .12602583 .99202696 -9.27 4.54)"/><ellipse cx="33.16" cy="84.47" fill="#f7dada" rx="1.89" ry="2.3" transform="matrix(.96150187 -.27479839 .27479839 .96150187 -21.93 12.36)"/></svg>