<svg enable-background="new 0 0 512 512" viewBox="0 0 512 512" xmlns="http://www.w3.org/2000/svg"><path d="m452.4544 67.3151 4.825-17.5727-150.369-41.2858-1.3427-.3797-20.8478 73.7471h-230.4135l30.8501 387.295c.2291 18.9096 15.6832 34.2242 34.6461 34.2242h179.1109c18.9386 0 34.3773-15.2744 34.6453-34.1505l36.249-387.3687h-66.1508l14.5234-51.3753zm-376.8316 106.3833-5.7101-74.1265h209.79l-20.955 74.1265zm125.5136 61.6663-14.5539 41.8297-41.8298-14.5536 14.5539-41.8297zm-36.1548 180.2458-44.7189-53.0204 53.0207-44.7192 44.7189 53.0207zm117.287-63.3379-65.5093-22.7925 22.7928-65.5096 65.509 22.7928zm71.9567-252.7007-6.7078 74.1265h-69.8326l20.955-74.1265z" fill="#b34f68"/></svg>