<svg enable-background="new 0 0 58 58" viewBox="0 0 58 58" xmlns="http://www.w3.org/2000/svg"><path d="m56 38.5h-54c-1.1 0-2-.9-2-2 0-1.1.9-2 2-2h54c1.1 0 2 .9 2 2 0 1.1-.9 2-2 2z" fill="#d2d5d7"/><path d="m2.458 38.5c2.963 4.63 15.542 10.205 15.542 17h11 11c0-6.795 12.579-12.37 15.542-17z" fill="#e6e6e6"/><path d="m9 32.5c-.553 0-1-.447-1-1 0-6.065 4.935-11 11-11h2c.553 0 1 .447 1 1s-.447 1-1 1h-2c-4.963 0-9 4.037-9 9 0 .553-.447 1-1 1z" fill="#dbb579"/><path d="m15 32.5c-.553 0-1-.447-1-1 0-2.757 2.243-5 5-5h5c.553 0 1 .447 1 1s-.447 1-1 1h-5c-1.654 0-3 1.346-3 3 0 .553-.447 1-1 1z" fill="#dbb579"/><g fill="#fbd490"><path d="m12 32.5c-.553 0-1-.447-1-1 0-4.411 3.589-8 8-8h4c.553 0 1 .447 1 1s-.447 1-1 1h-4c-3.309 0-6 2.691-6 6 0 .553-.447 1-1 1z"/><path d="m24 31.5h-5c-.553 0-1-.447-1-1s.447-1 1-1h5c.553 0 1 .447 1 1s-.447 1-1 1z"/><path d="m48 32.5c-.553 0-1-.447-1-1 0-4.963-4.037-9-9-9h-7c-.553 0-1-.447-1-1s.447-1 1-1h7c6.065 0 11 4.935 11 11 0 .553-.447 1-1 1z"/><path d="m42 32.5c-.553 0-1-.447-1-1 0-1.654-1.346-3-3-3h-5c-.553 0-1-.447-1-1s.447-1 1-1h5c2.757 0 5 2.243 5 5 0 .553-.447 1-1 1z"/></g><path d="m45 32.5c-.553 0-1-.447-1-1 0-3.309-2.691-6-6-6h-6c-.553 0-1-.447-1-1s.447-1 1-1h6c4.411 0 8 3.589 8 8 0 .553-.447 1-1 1z" fill="#dbb579"/><path d="m38 31.5h-5c-.553 0-1-.447-1-1s.447-1 1-1h5c.553 0 1 .447 1 1s-.447 1-1 1z" fill="#dbb579"/><path d="m27 32.5c-.553 0-1-.447-1-1 0-8.748-2.617-13-8-13-.552 0-1 .448-1 1 0 .553-.447 1-1 1s-1-.447-1-1c0-1.654 1.346-3 3-3 4.562 0 10 2.603 10 15 0 .553-.447 1-1 1z" fill="#fbd490"/><path d="m30 32.5c-.553 0-1-.447-1-1 0-4.811-1.072-16-11-16-2.757 0-5 2.243-5 5v1c0 .553-.447 1-1 1s-1-.447-1-1v-1c0-3.859 3.141-7 7-7 8.141 0 13 6.729 13 18 0 .553-.447 1-1 1z" fill="#dbb579"/><circle cx="25.5" cy="9" fill="#a46f3e" r="4.5"/><circle cx="43.5" cy="16" fill="#a46f3e" r="4.5"/><circle cx="33.5" cy="15" fill="#4c312c" r="4.5"/><circle cx="39.5" cy="7" fill="#4c312c" r="4.5"/><path d="m41.383 51.5h-24.766c.436.654.786 1.321 1.023 2h22.719c.238-.679.588-1.346 1.024-2z" fill="#f75b57"/><path d="m41.383 51.5c.453-.68.994-1.347 1.606-2h-27.978c.612.653 1.153 1.32 1.606 2z" fill="#fff"/><path d="m12.912 47.5c.75.653 1.461 1.319 2.1 2h27.977c.638-.681 1.35-1.347 2.1-2z" fill="#88c057"/></svg>