<svg enable-background="new 0 0 57.21 57.21" viewBox="0 0 57.21 57.21" xmlns="http://www.w3.org/2000/svg"><path d="m29.046 53.605h10.954c.992 0 1.604-1.083 1.092-1.932l-.01-.017c-.709-1.177-.847-2.657-.215-3.877.552-1.066 1.449-1.946 2.579-2.486 7.719-3.686 13.193-7.804 13.762-16.206.054-.796-.572-1.481-1.37-1.481h-26.791-27.672c-.798 0-1.424.685-1.37 1.481.569 8.401 6.042 12.52 13.762 16.206 1.129.539 2.027 1.42 2.579 2.486.632 1.22.494 2.7-.215 3.877l-.01.017c-.512.85.1 1.932 1.092 1.932z" fill="#e6e6e6"/><path d="m36 47.605h-8.707c-.552 0-1-.447-1-1s.448-1 1-1h8.707c.552 0 1 .447 1 1s-.448 1-1 1z" fill="#fff"/><path d="m24.386 47.605h-3.386c-.552 0-1-.447-1-1s.448-1 1-1h3.386c.552 0 1 .447 1 1s-.448 1-1 1z" fill="#fff"/><path d="m36 50.605h-15c-.552 0-1-.447-1-1s.448-1 1-1h15c.552 0 1 .447 1 1s-.448 1-1 1z" fill="#fff"/><path d="m41 3.605c-4.971 0-9 4.029-9 9 0 .703.089 1.384.241 2.041.507.521 1.281.7 1.959.386l.392-.181c1.091-.505 2.352.223 2.46 1.42l.039.43c.076.836.738 1.499 1.575 1.574l.43.039c1.197.108 1.925 1.37 1.42 2.46l-.181.392c-.06.129-.079.265-.105.4.255.022.511.039.771.039 4.971 0 9-4.03 9-9-.001-4.971-4.03-9-9.001-9z" fill="#d13834"/><path d="m49.974 13.119c-.268 4.73-4.177 8.486-8.974 8.486-.26 0-.518-.012-.773-.034-.127.658.114 1.345.682 1.745l.354.25c.982.692.982 2.149-.001 2.84l-.353.249c-.321.226-.534.548-.645.901.014.016.026.033.04.049h13.389c1.429-1.593 2.305-3.692 2.305-6 .002-3.927-2.517-7.257-6.024-8.486z" fill="#436b1c"/><g fill="#ed3f32"><path d="m39.586 12.191c-.256 0-.512-.098-.707-.293l-2.829-2.828c-.391-.391-.391-1.023 0-1.414s1.023-.391 1.414 0l2.829 2.828c.391.391.391 1.023 0 1.414-.195.195-.451.293-.707.293z"/><path d="m45.243 17.847c-.256 0-.512-.098-.707-.293l-2.829-2.828c-.391-.391-.391-1.023 0-1.414s1.023-.391 1.414 0l2.829 2.828c.39.391.391 1.023 0 1.414-.196.196-.451.293-.707.293z"/><path d="m42.414 12.191c-.256 0-.512-.098-.707-.293-.391-.391-.391-1.023 0-1.414l2.829-2.828c.391-.391 1.023-.391 1.414 0s.39 1.023 0 1.414l-2.829 2.828c-.195.195-.451.293-.707.293z"/><path d="m37.257 17.347c-.256 0-.512-.098-.707-.293-.391-.391-.391-1.023 0-1.414l2.329-2.328c.391-.391 1.023-.391 1.414 0s.391 1.023 0 1.414l-2.329 2.328c-.195.196-.451.293-.707.293z"/></g><path d="m53 21.605h-4c-.553 0-1-.447-1-1s.447-1 1-1h4c.553 0 1 .447 1 1s-.447 1-1 1z" fill="#659c35"/><path d="m47 27.605c-.553 0-1-.447-1-1v-4c0-.553.447-1 1-1s1 .447 1 1v4c0 .553-.447 1-1 1z" fill="#659c35"/><path d="m23.461 18.387c.972.303 1.505 1.414 1.054 2.388l-.181.392c-.353.762-.11 1.667.576 2.15l.354.25c.982.692.982 2.149-.001 2.84l-.353.249c-.337.237-.563.577-.669.951h4.804 11.196c.105-.374.332-.713.669-.951l.353-.249c.982-.692.983-2.148.001-2.84l-.354-.25c-.686-.483-.928-1.388-.576-2.15l.181-.392c.505-1.091-.223-2.352-1.42-2.46l-.43-.039c-.836-.076-1.499-.738-1.575-1.574l-.039-.43c-.108-1.197-1.37-1.925-2.46-1.42l-.391.18c-.762.353-1.667.11-2.15-.576l-.249-.353c-.692-.983-2.149-.983-2.841 0l-.249.353c-.483.686-1.388.929-2.15.576l-.392-.182c-1.091-.505-2.352.224-2.46 1.42l-.039.43c-.04.442-.24.937-.393 1.26-.08.171.005.371.184.427z" fill="#88c057"/><path d="m12.545 13.88 5.76-8.175c.95-1.349 2.832-1.675 4.18-.724 1.349.95 1.675 2.832.724 4.18l-5.76 8.175c-.95 1.349-2.832 1.675-4.18.724-1.349-.95-1.675-2.831-.724-4.18z" fill="#a46f3e"/><path d="m25.263 23.565-.353-.249c-.686-.483-.929-1.388-.576-2.15l.181-.392c.505-1.091-.224-2.352-1.42-2.46l-.43-.039c-.836-.076-1.499-.738-1.574-1.574l-.039-.43c-.085-.938-.88-1.579-1.744-1.573l-1.858 2.637c-.95 1.349-2.832 1.675-4.18.724-1.007-.71-1.443-1.938-1.204-3.077-.461.233-1.008.278-1.504.049l-.392-.182c-1.091-.505-2.352.224-2.46 1.42l-.039.43c-.076.836-.738 1.499-1.574 1.574l-.43.039c-1.197.108-1.925 1.37-1.42 2.46l.181.392c.353.762.11 1.667-.576 2.15l-.353.249c-.982.692-.982 2.149 0 2.841l.353.249c.337.237.563.577.668.95h19.722c.105-.374.332-.713.668-.95l.353-.249c.983-.69.983-2.147 0-2.839z" fill="#fbd490"/><path d="m29.5 21.105c-.256 0-.512-.098-.707-.293-.391-.391-.391-1.023 0-1.414l1.5-1.5c.391-.391 1.023-.391 1.414 0s.391 1.023 0 1.414l-1.5 1.5c-.195.195-.451.293-.707.293z" fill="#436b1c"/><path d="m35 23.605c-.256 0-.512-.098-.707-.293l-1-1c-.391-.391-.391-1.023 0-1.414s1.023-.391 1.414 0l1 1c.391.391.391 1.023 0 1.414-.195.195-.451.293-.707.293z" fill="#436b1c"/><path d="m30 25.605c-.256 0-.512-.098-.707-.293-.391-.391-.391-1.023 0-1.414l1-1c.391-.391 1.023-.391 1.414 0s.391 1.023 0 1.414l-1 1c-.195.195-.451.293-.707.293z" fill="#436b1c"/></svg>