<svg enable-background="new 0 0 49 49" viewBox="0 0 49 49" xmlns="http://www.w3.org/2000/svg"><path d="m46.5 40.153h-44c-1.375 0-2.5-1.125-2.5-2.5 0-1.375 1.125-2.5 2.5-2.5h44c1.375 0 2.5 1.125 2.5 2.5 0 1.375-1.125 2.5-2.5 2.5z" fill="#6a3311"/><path d="m46.5 36.153h-44c-1.375 0-2.5-1.125-2.5-2.5 0-1.375 1.125-2.5 2.5-2.5h44c1.375 0 2.5 1.125 2.5 2.5 0 1.375-1.125 2.5-2.5 2.5z" fill="#a8431a"/><path d="m6.5 29.153c-2.75 0-2.384-1.008-2.5-2-2.642.501-4 2.004-4 3.5 0 1.933 3.134 3.5 7 3.5s7-1.567 7-3.5c0-.538-.25-1.045-.683-1.5z" fill="#ed3f32"/><path d="m13.298 29.153c.437.456.702.961.702 1.5 0 .816-.563 1.565-1.5 2.16 1.282.815 3.266 1.34 5.5 1.34 3.866 0 7-1.567 7-3.5 0-.538-.25-1.045-.683-1.5z" fill="#f9ea80"/><path d="m3 23.153h42v6h-42z" fill="#d28f1b"/><path d="m45 23.153h-42l21-21z" fill="#fde3aa"/><path d="m45 28.692v.46h-9.207c-.117.056-.226.114-.332.174.338.41.539.855.539 1.327 0 .712-.428 1.374-1.159 1.927 1.184.937 3.498 1.573 6.159 1.573 3.866 0 7-1.343 7-3 0-1.019-1.188-1.918-3-2.461z" fill="#f9ea80"/><path d="m24.305 29.153c.437.455.695.961.695 1.5 0 .658-.369 1.27-1 1.796 1.223 1.019 3.449 1.704 6 1.704 3.866 0 7-1.567 7-3.5 0-.538-.25-1.045-.683-1.5z" fill="#ed3f32"/><g fill="#d28f1b"><circle cx="34" cy="19.153" r="1"/><circle cx="23" cy="10.153" r="1"/><circle cx="14" cy="19.153" r="1"/><circle cx="27" cy="16.153" r="1"/><circle cx="21" cy="17.153" r="1"/></g><path d="m1.224 40.153h45.776v6.695h-45.776z" fill="#fde3aa"/><circle cx="31" cy="42.153" fill="#d28f1b" r="1"/><circle cx="39" cy="44.153" fill="#d28f1b" r="1"/><circle cx="7" cy="44.153" fill="#d28f1b" r="1"/><circle cx="24" cy="44.153" fill="#d28f1b" r="1"/><circle cx="15" cy="42.153" fill="#d28f1b" r="1"/></svg>